<?xml version="1.0" encoding="UTF-8"?>
<svg version="1.1" xmlns="http://www.w3.org/2000/svg" width="512" height="512">
<path d="M0 0 C1.01790619 0.00215515 2.03581238 0.0043103 3.08456421 0.00653076 C17.69363523 0.05620146 32.02575853 0.30709809 46.375 3.3125 C47.34985352 3.51117676 48.32470703 3.70985352 49.32910156 3.91455078 C97.7109774 14.03517194 141.69928269 35.9516877 177.375 70.3125 C178.3640332 71.26068604 178.3640332 71.26068604 179.37304688 72.22802734 C188.86130305 81.37247479 197.6012044 90.66984009 205.375 101.3125 C206.23306152 102.46355017 207.09113451 103.61459177 207.94921875 104.765625 C213.98736829 112.95680614 219.34595521 121.47054105 224.375 130.3125 C224.73948242 130.94430176 225.10396484 131.57610352 225.47949219 132.22705078 C247.08534998 169.97532572 256.85198095 212.74189997 256.6875 255.9375 C256.68534485 256.95540619 256.6831897 257.97331238 256.68096924 259.02206421 C256.63129854 273.63113523 256.38040191 287.96325853 253.375 302.3125 C253.07698486 303.77478027 253.07698486 303.77478027 252.77294922 305.26660156 C242.65232806 353.6484774 220.7358123 397.63678269 186.375 433.3125 C185.74287598 433.97185547 185.11075195 434.63121094 184.45947266 435.31054688 C175.31502521 444.79880305 166.01765991 453.5387044 155.375 461.3125 C154.22394983 462.17056152 153.07290823 463.02863451 151.921875 463.88671875 C143.73224019 469.92427396 135.22961724 475.30707302 126.375 480.3125 C125.66778809 480.7146875 124.96057617 481.116875 124.23193359 481.53125 C101.09654164 494.5566741 75.92537591 503.30551461 49.9375 508.625 C49.21860596 508.77235596 48.49971191 508.91971191 47.7590332 509.0715332 C33.08339502 511.86090125 18.55831162 512.66142619 3.64770508 512.62817383 C0.70811513 512.6250221 -2.2304558 512.64854926 -5.16992188 512.67382812 C-18.54306192 512.71848737 -31.43916711 511.51301542 -44.625 509.3125 C-46.33055054 509.03031616 -46.33055054 509.03031616 -48.07055664 508.74243164 C-91.33802759 500.97044532 -132.38793216 480.98345309 -165.625 452.3125 C-166.37007813 451.67828125 -167.11515625 451.0440625 -167.8828125 450.390625 C-181.38779833 438.57948485 -194.05918743 425.82889772 -204.625 411.3125 C-205.48149066 410.16255169 -206.33826433 409.01281411 -207.1953125 407.86328125 C-213.23534209 399.67315742 -218.61867614 391.16870382 -223.625 382.3125 C-224.0271875 381.60528809 -224.429375 380.89807617 -224.84375 380.16943359 C-237.8691741 357.03404164 -246.61801461 331.86287591 -251.9375 305.875 C-252.08485596 305.15610596 -252.23221191 304.43721191 -252.3840332 303.6965332 C-255.35789088 288.05024391 -255.99800362 272.57681954 -255.9375 256.6875 C-255.93534485 255.66959381 -255.9331897 254.65168762 -255.93096924 253.60293579 C-255.88129854 238.99386477 -255.63040191 224.66174147 -252.625 210.3125 C-252.42632324 209.33764648 -252.22764648 208.36279297 -252.02294922 207.35839844 C-241.90232806 158.9765226 -219.9858123 114.98821731 -185.625 79.3125 C-184.99287598 78.65314453 -184.36075195 77.99378906 -183.70947266 77.31445312 C-174.56502521 67.82619695 -165.26765991 59.0862956 -154.625 51.3125 C-153.47394983 50.45443848 -152.32290823 49.59636549 -151.171875 48.73828125 C-142.98224019 42.70072604 -134.47961724 37.31792698 -125.625 32.3125 C-124.91778809 31.9103125 -124.21057617 31.508125 -123.48193359 31.09375 C-100.34654164 18.0683259 -75.17537591 9.31948539 -49.1875 4 C-48.46860596 3.85264404 -47.74971191 3.70528809 -47.0090332 3.5534668 C-31.36274391 0.57960912 -15.88931954 -0.06050362 0 0 Z " fill="#5187FD" transform="translate(255.625,-0.3125)"/>
<path d="M0 0 C0.84802185 -0.00807175 1.6960437 -0.01614349 2.56976318 -0.02445984 C4.37200889 -0.03829961 6.1742808 -0.04902225 7.9765625 -0.05688477 C9.79369962 -0.06830622 11.61080589 -0.08859819 13.42773438 -0.1184082 C33.44570278 -0.44654157 50.18540829 2.63741695 65.21484375 16.98046875 C65.96378906 17.72554687 66.71273437 18.470625 67.484375 19.23828125 C68.09925781 19.81835938 68.71414063 20.3984375 69.34765625 20.99609375 C99.65933561 52.07427534 109.49046095 116.56101652 114.484375 157.23828125 C114.61727936 158.21790329 114.61727936 158.21790329 114.75286865 159.21731567 C117.14845574 177.20511814 116.79093223 195.34527317 116.74511719 213.45288086 C116.73362953 218.03963679 116.74036729 222.62616093 116.75226212 227.21290874 C116.75951538 230.7861758 116.75717853 234.35938848 116.75200653 237.93265724 C116.75068452 239.62416424 116.75226618 241.31567637 116.75696564 243.00717735 C116.8119727 268.31463873 116.8119727 268.31463873 108.484375 277.23828125 C101.628037 282.46006827 95.79838345 284.22918442 87.26953125 284.59765625 C61.34750966 285.87886939 36.62885069 290.02701644 11.51953125 296.5319519 C-17.45650168 304.00883604 -50.80006536 305.53748843 -77.921875 290.328125 C-78.9840625 289.70035156 -80.04625 289.07257813 -81.140625 288.42578125 C-89.31632969 284.08124981 -97.56465659 284.52519718 -106.6484375 284.39453125 C-118.68395279 284.19297029 -129.67010027 281.53211081 -140.515625 276.23828125 C-141.88267578 275.60986328 -141.88267578 275.60986328 -143.27734375 274.96875 C-161.90466912 265.74809108 -175.79268345 247.57269826 -182.515625 228.23828125 C-188.96964906 207.50795598 -186.48737994 185.89679847 -176.65917969 166.76904297 C-173.80136941 161.47322123 -170.45563776 156.78805789 -166.515625 152.23828125 C-165.89171875 151.42488281 -165.2678125 150.61148438 -164.625 149.7734375 C-152.9659132 135.76094244 -134.393837 127.00043233 -116.57421875 124.515625 C-95.40882371 122.59641293 -72.83978099 127.0601938 -56.140625 140.921875 C-53.12945315 143.56704806 -50.31304718 146.36880425 -47.515625 149.23828125 C-46.51789063 150.22248047 -46.51789063 150.22248047 -45.5 151.2265625 C-39.20688208 157.84567527 -30.515625 169.91906628 -30.515625 179.23828125 C-31.75054687 179.39683594 -32.98546875 179.55539062 -34.2578125 179.71875 C-43.05848452 180.90762806 -51.69645713 182.31165297 -60.265625 184.67578125 C-61.33466064 184.96521606 -61.33466064 184.96521606 -62.42529297 185.26049805 C-67.35516314 186.68353541 -72.15532611 188.49430005 -76.515625 191.23828125 C-78.07337436 194.35377997 -78.08043122 197.84272005 -77.515625 201.23828125 C-75.9772319 203.18023587 -75.06796314 204.12317534 -72.61425781 204.63452148 C-66.43372297 204.56208235 -61.11596431 203.22593056 -55.265625 201.30078125 C-53.53186095 200.74807984 -51.7975028 200.19723793 -50.0625 199.6484375 C-49.30807617 199.40230713 -48.55365234 199.15617676 -47.77636719 198.90258789 C-40.88423981 196.87737422 -34.1518291 197.01807751 -27.015625 196.98828125 C-25.81164062 196.96765625 -24.60765625 196.94703125 -23.3671875 196.92578125 C-12.60531081 196.87949361 -2.9712914 198.89124663 7.171875 202.42578125 C12.41840724 204.0728744 18.01631019 205.67391217 23.484375 204.23828125 C26.09144215 201.55589883 26.46570202 200.50437126 26.734375 196.67578125 C26.62779599 193.25757529 26.62779599 193.25757529 25.484375 190.23828125 C23.324063 189.27997294 23.324063 189.27997294 20.734375 188.67578125 C17.19345309 187.73754296 13.8756667 186.62295232 10.484375 185.23828125 C9.38970164 152.56228155 14.61507433 120.64304566 23.484375 89.23828125 C22.93473083 89.25160492 22.38508667 89.26492859 21.81878662 89.27865601 C16.04284323 89.41249702 10.26734755 89.50234123 4.49023438 89.56787109 C2.34096351 89.59784743 0.19181291 89.63864346 -1.95703125 89.69091797 C-25.66909139 90.25286735 -25.66909139 90.25286735 -34.515625 83.23828125 C-40.56708431 77.03664545 -43.77838036 71.25026583 -43.69140625 62.37890625 C-43.66626953 61.38117188 -43.66626953 61.38117188 -43.640625 60.36328125 C-43.63160156 59.67492187 -43.62257812 58.9865625 -43.61328125 58.27734375 C-43.58995013 56.59750287 -43.55408826 54.91784379 -43.515625 53.23828125 C-42.80818649 53.22797379 -42.10074799 53.21766632 -41.37187195 53.20704651 C-34.70631262 53.10908604 -28.04084068 53.00657362 -21.37543011 52.89894199 C-17.94864272 52.84376772 -14.52184672 52.79035659 -11.0949707 52.7409668 C-7.15567249 52.6841146 -3.2165176 52.61960813 0.72265625 52.5546875 C2.5696386 52.52961876 2.5696386 52.52961876 4.45393372 52.50404358 C6.16536812 52.47412575 6.16536812 52.47412575 7.91137695 52.44360352 C9.42028252 52.42028709 9.42028252 52.42028709 10.95967102 52.39649963 C13.61041553 52.33864155 13.61041553 52.33864155 16.484375 51.23828125 C16.76156881 49.6594817 17.00511643 48.07475058 17.234375 46.48828125 C17.44320312 45.16570312 17.44320312 45.16570312 17.65625 43.81640625 C17.71951165 41.12888959 17.71951165 41.12888959 15.82330322 39.11126709 C12.9518912 36.81187457 11.53266437 36.72520278 7.88964844 36.69238281 C6.76878845 36.67266418 5.64792847 36.65294556 4.49310303 36.63262939 C2.68667328 36.63078644 2.68667328 36.63078644 0.84375 36.62890625 C-0.39356873 36.61237 -1.63088745 36.59583374 -2.90570068 36.57879639 C-6.18714031 36.5384574 -9.4681213 36.51513364 -12.74975586 36.50006104 C-16.10158341 36.48047454 -19.45303814 36.43817228 -22.8046875 36.3984375 C-29.37492983 36.32443496 -35.94506334 36.27286215 -42.515625 36.23828125 C-40.89380973 23.84855695 -34.23609201 14.96795729 -24.515625 7.23828125 C-16.66116929 2.47037944 -9.11675478 0.082895 0 0 Z " fill="#123174" transform="translate(290.515625,104.76171875)"/>
</svg>
